{
	"asset":{
		"generator":"Khronos glTF Blender I/O v3.5.30",
		"version":"2.0"
	},
	"scene":0,
	"scenes":[
		{
			"name":"Scene",
			"nodes":[
				0,
				1
			]
		}
	],
	"nodes":[
		{
			"mesh":0,
			"name":"Sphere",
			"translation":[
				0,
				2.8510239124298096,
				0
			]
		},
		{
			"name":"Volume"
		}
	],
	"meshes":[
		{
			"name":"Sphere",
			"primitives":[
				{
					"attributes":{
						"POSITION":0,
						"TEXCOORD_0":1,
						"NORMAL":2
					},
					"indices":3
				}
			]
		}
	],
	"accessors":[
		{
			"bufferView":0,
			"componentType":5126,
			"count":32369,
			"max":[
				1.0931496620178223,
				1.2814332246780396,
				2.310887098312378
			],
			"min":[
				-1.3575665950775146,
				-1.00383460521698,
				-1.556978702545166
			],
			"type":"VEC3"
		},
		{
			"bufferView":1,
			"componentType":5126,
			"count":32369,
			"type":"VEC2"
		},
		{
			"bufferView":2,
			"componentType":5126,
			"count":32369,
			"type":"VEC3"
		},
		{
			"bufferView":3,
			"componentType":5123,
			"count":190464,
			"type":"SCALAR"
		}
	],
	"bufferViews":[
		{
			"buffer":0,
			"byteLength":388428,
			"byteOffset":0,
			"target":34962
		},
		{
			"buffer":0,
			"byteLength":258952,
			"byteOffset":388428,
			"target":34962
		},
		{
			"buffer":0,
			"byteLength":388428,
			"byteOffset":647380,
			"target":34962
		},
		{
			"buffer":0,
			"byteLength":380928,
			"byteOffset":1035808,
			"target":34963
		}
	],
	"buffers":[
		{
			"byteLength":1416736,
			"uri":"data:application/octet-stream;base64,"
		}
	]
}
